<?xml version="1.0" encoding="UTF-8"?>
<svg width="210mm" height="297mm" version="1.1" viewBox="0 0 744.09448819 1052.3622047" xmlns="http://www.w3.org/2000/svg">
 <g transform="matrix(.36448 0 0 .36448 760.97 737.2)">
  <g transform="matrix(.72493 0 0 .79461 -346.81 -48.651)">
   <g transform="translate(-17.485 -170.56)">
    <g transform="matrix(.45561 0 0 .45561 -540.21 -148.22)">
     <g transform="translate(12.165 -811)">
      <g transform="matrix(2.4202 .524 -.62956 2.4202 345.43 6082.9)">
       <g transform="matrix(1.8334 0 0 1.8334 1010.9 2669.3)">
        <path transform="matrix(.39115 -.084687 .10175 .39115 -754.04 -2350.1)" d="m-985.87-973.13s523.81-514.47 697.56-784.28c-784.8 206.91-1395.1 72.708-1333.6-15.86 42.409-61.043 405.27-133 1310.5-10.673 0 0-312.91-37.793-619.49-53.229-354.48-17.849-616.89 7.055-636.89 76.677-8.0317 86.879 727.67 131.6 1280.1 1.8381-198.82 281.11-716.67 736.44-716.67 736.44l-645.72-721.32c65.283 128.78 664.24 770.41 664.24 770.41z" fill-rule="evenodd" stroke="#000" stroke-width="1.255px"/>
        <path transform="matrix(.39115 -.084687 .10175 .39115 -754.04 -2350.1)" d="m-1134.9 78.111c-1.7382-0.10488-731.87 77.99-172.58 166.8 666.85 105.89 887.46-46.49 888.16-68.179 2.8614-89.402-481.82-92.907-481.82-92.907 113.3 11.015 233.37 35.947 367.39 55.98 134.03 20.033-29.917 111.32-345.73 123.79-487.23 19.25-783.52-106.84-255.41-185.49z" fill-rule="evenodd" stroke="#000" stroke-width=".55856px"/>
        <g transform="matrix(.23821 -.051574 .075076 .28862 -917.61 -2432.3)" fill-rule="evenodd">
         <path d="m-1022.7 730.97c-53.591-231.47-116.56-623.27-23.928-1653-215.85 753.17-128.92 993.97 23.928 1653z"/>
         <path d="m-974.62 795.13c53.591-236.57 78.805-664.78-13.823-1717.1 141.12 755.69 154.84 1057.2 13.823 1717.1z"/>
        </g>
        <path d="m-1006.8-3102.8c-43.543-5.1241-147.53-30.848-215.67-53.351-30.22-9.9799-78.099-28.332-79.566-30.498-0.634-0.9358 15.352 2.8134 35.524 8.3315 35.44 9.6944 46.548 12.473 130.13 32.553 55.887 13.426 189.08 40.862 198.37 40.862 2.8997 0 19.65 1.7381 18.082 3.1684-23.468 6.5159-65.395 1.4669-86.869-1.0663z"/>
        <path d="m-944.28-3119.6c-8.8041-6.6996-25.579-21.027-37.277-31.839-22.053-20.382-70.766-75.023-70.28-78.833 1.045-8.1887 52.599 37.531 90.936 80.645 21.689 24.391 36.715 43.492 33.395 42.449-0.42205-0.1324-7.9707-5.7224-16.775-12.422z"/>
        <path d="m-1330.7-3194.3c4.3017-4.2411 166.5-29.89 240.24-37.99 12.235-1.3439 23.449-3.0539 24.92-3.8 1.7983-0.9119 1.8584-0.5654 0.1832 1.0569-2.6228 2.54-47.284 16.208-71.626 21.92-18.672 4.3814-69.462 12.078-97.833 14.824-29.017 2.8093-97.579 5.6615-95.882 3.9887z"/>
        <path d="m-1119.1-3117.5-63.259 197.28s-44.035 224.71-38.177 201.67c0 0 127.56-404.61 101.44-398.95z" fill-rule="evenodd"/>
        <path d="m-1183.1-3167.2c1.2049-2.4088 67.753-34.804 98.569-47.983 5.1128-2.1866 9.7239-4.3988 10.247-4.9161 0.6392-0.6323 0.7198-0.4893 0.2459 0.436-0.7418 1.4486-18.027 13.243-27.722 18.916-7.4362 4.3511-28.328 14.349-40.242 19.259-12.186 5.0213-41.573 15.238-41.098 14.288z"/>
        <path d="m-1061-3221.1c2.0961 1.1376 14.527 50.314 18.413 72.839 0.6448 3.7371 1.4731 7.14 1.8402 7.5621 0.449 0.5161 0.2769 0.551-0.5253 0.1033-1.2551-0.6958-7.9546-13.928-10.744-21.22-2.1398-5.5944-5.8661-21.01-7.1777-29.693-1.3413-8.8812-2.633-30.043-1.8065-29.594z"/>
       </g>
      </g>
     </g>
    </g>
   </g>
  </g>
 </g>
</svg>
